<?xml version="1.0" encoding="UTF-8" standalone="no"?>
<!DOCTYPE svg PUBLIC "-//W3C//DTD SVG 1.1//EN"
 "http://www.w3.org/Graphics/SVG/1.1/DTD/svg11.dtd">
<!-- Generated by graphviz version 2.40.1 (20161225.0304)
 -->
<!-- Title: fallback Pages: 1 -->
<svg width="817pt" height="332pt"
 viewBox="0.00 0.00 816.54 332.00" xmlns="http://www.w3.org/2000/svg" xmlns:xlink="http://www.w3.org/1999/xlink">
<g id="graph0" class="graph" transform="scale(1 1) rotate(0) translate(4 328)">
<title>fallback</title>
<polygon fill="#ffffff" stroke="transparent" points="-4,4 -4,-328 812.5391,-328 812.5391,4 -4,4"/>
<!-- Fallback -->
<g id="node1" class="node">
<title>Fallback</title>
<polygon fill="#00ffff" stroke="#000000" points="498.0772,-298.5442 498.0772,-313.4558 477.2242,-324 447.7336,-324 426.8806,-313.4558 426.8806,-298.5442 447.7336,-288 477.2242,-288 498.0772,-298.5442"/>
<text text-anchor="middle" x="462.4789" y="-303.2" font-family="Times,serif" font-size="11.00" fill="#000000">Fallback</text>
</g>
<!-- Task_done? -->
<g id="node2" class="node">
<title>Task_done?</title>
<ellipse fill="#c0c0c0" stroke="#000000" cx="417.4789" cy="-234" rx="42.1875" ry="18"/>
<text text-anchor="middle" x="417.4789" y="-231.2" font-family="Times,serif" font-size="11.00" fill="#000000">Task_done?</text>
</g>
<!-- Fallback&#45;&gt;Task_done? -->
<g id="edge1" class="edge">
<title>Fallback&#45;&gt;Task_done?</title>
<path fill="none" stroke="#000000" d="M451.1235,-287.8314C445.8356,-279.3707 439.449,-269.1521 433.6673,-259.9014"/>
<polygon fill="#000000" stroke="#000000" points="436.633,-258.0427 428.365,-251.4177 430.697,-261.7527 436.633,-258.0427"/>
</g>
<!-- Sequence -->
<g id="node3" class="node">
<title>Sequence</title>
<polygon fill="#ffa500" stroke="#000000" points="536.9789,-252 477.9789,-252 477.9789,-216 536.9789,-216 536.9789,-252"/>
<text text-anchor="middle" x="507.4789" y="-231.2" font-family="Times,serif" font-size="11.00" fill="#000000">Sequence</text>
</g>
<!-- Fallback&#45;&gt;Sequence -->
<g id="edge2" class="edge">
<title>Fallback&#45;&gt;Sequence</title>
<path fill="none" stroke="#000000" d="M473.8343,-287.8314C478.9115,-279.7079 485.0016,-269.9637 490.5966,-261.0118"/>
<polygon fill="#000000" stroke="#000000" points="493.6386,-262.7483 495.9706,-252.4133 487.7026,-259.0383 493.6386,-262.7483"/>
</g>
<!-- Head up! -->
<g id="node4" class="node">
<title>Head up!</title>
<ellipse fill="#c0c0c0" stroke="#000000" cx="272.4789" cy="-162" rx="34.7556" ry="18"/>
<text text-anchor="middle" x="272.4789" y="-159.2" font-family="Times,serif" font-size="11.00" fill="#000000">Head up!</text>
</g>
<!-- Sequence&#45;&gt;Head up! -->
<g id="edge3" class="edge">
<title>Sequence&#45;&gt;Head up!</title>
<path fill="none" stroke="#000000" d="M477.9201,-219.6158C474.7678,-218.3055 471.5804,-217.0709 468.4789,-216 402.8565,-193.3405 382.5849,-201.2075 316.4789,-180 313.915,-179.1775 311.2899,-178.2722 308.661,-177.3187"/>
<polygon fill="#000000" stroke="#000000" points="309.8166,-174.0136 299.2259,-173.7161 307.3195,-180.5531 309.8166,-174.0136"/>
</g>
<!-- Fallback  -->
<g id="node5" class="node">
<title>Fallback </title>
<polygon fill="#00ffff" stroke="#000000" points="400.983,-154.5442 400.983,-169.4558 379.0136,-180 347.9442,-180 325.9748,-169.4558 325.9748,-154.5442 347.9442,-144 379.0136,-144 400.983,-154.5442"/>
<text text-anchor="middle" x="363.4789" y="-159.2" font-family="Times,serif" font-size="11.00" fill="#000000">Fallback </text>
</g>
<!-- Sequence&#45;&gt;Fallback  -->
<g id="edge4" class="edge">
<title>Sequence&#45;&gt;Fallback </title>
<path fill="none" stroke="#000000" d="M477.642,-219.0816C454.8061,-207.6636 423.2331,-191.8771 399.0777,-179.7994"/>
<polygon fill="#000000" stroke="#000000" points="400.3977,-176.5463 389.8881,-175.2046 397.2671,-182.8073 400.3977,-176.5463"/>
</g>
<!-- Head down! -->
<g id="node16" class="node">
<title>Head down!</title>
<ellipse fill="#c0c0c0" stroke="#000000" cx="461.4789" cy="-162" rx="42.8909" ry="18"/>
<text text-anchor="middle" x="461.4789" y="-159.2" font-family="Times,serif" font-size="11.00" fill="#000000">Head down!</text>
</g>
<!-- Sequence&#45;&gt;Head down! -->
<g id="edge15" class="edge">
<title>Sequence&#45;&gt;Head down!</title>
<path fill="none" stroke="#000000" d="M495.8712,-215.8314C490.4658,-207.3707 483.9372,-197.1521 478.027,-187.9014"/>
<polygon fill="#000000" stroke="#000000" points="480.9403,-185.9603 472.6069,-179.4177 475.0414,-189.7291 480.9403,-185.9603"/>
</g>
<!-- Pick up! -->
<g id="node17" class="node">
<title>Pick up!</title>
<ellipse fill="#c0c0c0" stroke="#000000" cx="554.4789" cy="-162" rx="31.7423" ry="18"/>
<text text-anchor="middle" x="554.4789" y="-159.2" font-family="Times,serif" font-size="11.00" fill="#000000">Pick up!</text>
</g>
<!-- Sequence&#45;&gt;Pick up! -->
<g id="edge16" class="edge">
<title>Sequence&#45;&gt;Pick up!</title>
<path fill="none" stroke="#000000" d="M519.339,-215.8314C524.9444,-207.2444 531.7318,-196.8466 537.8411,-187.4878"/>
<polygon fill="#000000" stroke="#000000" points="540.8944,-189.2133 543.4298,-178.9263 535.0327,-185.3869 540.8944,-189.2133"/>
</g>
<!-- To pose place_table! -->
<g id="node18" class="node">
<title>To pose place_table!</title>
<ellipse fill="#c0c0c0" stroke="#000000" cx="670.4789" cy="-162" rx="66.2946" ry="18"/>
<text text-anchor="middle" x="670.4789" y="-159.2" font-family="Times,serif" font-size="11.00" fill="#000000">To pose place_table!</text>
</g>
<!-- Sequence&#45;&gt;To pose place_table! -->
<g id="edge17" class="edge">
<title>Sequence&#45;&gt;To pose place_table!</title>
<path fill="none" stroke="#000000" d="M536.997,-220.9613C561.8893,-209.966 597.8851,-194.066 626.2255,-181.5475"/>
<polygon fill="#000000" stroke="#000000" points="627.7829,-184.6859 635.516,-177.4437 624.9545,-178.2828 627.7829,-184.6859"/>
</g>
<!-- Place! -->
<g id="node19" class="node">
<title>Place!</title>
<ellipse fill="#c0c0c0" stroke="#000000" cx="781.4789" cy="-162" rx="27.1205" ry="18"/>
<text text-anchor="middle" x="781.4789" y="-159.2" font-family="Times,serif" font-size="11.00" fill="#000000">Place!</text>
</g>
<!-- Sequence&#45;&gt;Place! -->
<g id="edge18" class="edge">
<title>Sequence&#45;&gt;Place!</title>
<path fill="none" stroke="#000000" d="M537.0641,-229.6399C582.715,-222.3922 672.6684,-206.033 745.4789,-180 747.3542,-179.3295 749.2581,-178.5852 751.161,-177.7919"/>
<polygon fill="#000000" stroke="#000000" points="752.8764,-180.8567 760.5303,-173.5309 749.9785,-174.4847 752.8764,-180.8567"/>
</g>
<!-- Have block? -->
<g id="node6" class="node">
<title>Have block?</title>
<ellipse fill="#c0c0c0" stroke="#000000" cx="206.4789" cy="-90" rx="43.7956" ry="18"/>
<text text-anchor="middle" x="206.4789" y="-87.2" font-family="Times,serif" font-size="11.00" fill="#000000">Have block?</text>
</g>
<!-- Fallback &#45;&gt;Have block? -->
<g id="edge5" class="edge">
<title>Fallback &#45;&gt;Have block?</title>
<path fill="none" stroke="#000000" d="M336.1316,-149.4586C310.9524,-137.9114 273.3367,-120.6609 245.0974,-107.7104"/>
<polygon fill="#000000" stroke="#000000" points="246.4603,-104.4849 235.9115,-103.4978 243.5423,-110.8478 246.4603,-104.4849"/>
</g>
<!-- Sequence  -->
<g id="node7" class="node">
<title>Sequence </title>
<polygon fill="#ffa500" stroke="#000000" points="330.4789,-108 268.4789,-108 268.4789,-72 330.4789,-72 330.4789,-108"/>
<text text-anchor="middle" x="299.4789" y="-87.2" font-family="Times,serif" font-size="11.00" fill="#000000">Sequence </text>
</g>
<!-- Fallback &#45;&gt;Sequence  -->
<g id="edge6" class="edge">
<title>Fallback &#45;&gt;Sequence </title>
<path fill="none" stroke="#000000" d="M347.329,-143.8314C339.8073,-135.3694 330.7224,-125.1489 322.4986,-115.8971"/>
<polygon fill="#000000" stroke="#000000" points="325.1059,-113.5621 315.8463,-108.4133 319.874,-118.2127 325.1059,-113.5621"/>
</g>
<!-- Sequence &#160; -->
<g id="node11" class="node">
<title>Sequence &#160;</title>
<polygon fill="#ffa500" stroke="#000000" points="460.9789,-108 395.9789,-108 395.9789,-72 460.9789,-72 460.9789,-108"/>
<text text-anchor="middle" x="428.4789" y="-87.2" font-family="Times,serif" font-size="11.00" fill="#000000">Sequence &#160;</text>
</g>
<!-- Fallback &#45;&gt;Sequence &#160; -->
<g id="edge10" class="edge">
<title>Fallback &#45;&gt;Sequence &#160;</title>
<path fill="none" stroke="#000000" d="M379.5463,-144.2022C387.3002,-135.6134 396.7475,-125.1486 405.2657,-115.7131"/>
<polygon fill="#000000" stroke="#000000" points="408.0417,-117.8612 412.1449,-108.0931 402.8459,-113.1705 408.0417,-117.8612"/>
</g>
<!-- To pose pick_table2! -->
<g id="node15" class="node">
<title>To pose pick_table2!</title>
<ellipse fill="#c0c0c0" stroke="#000000" cx="545.4789" cy="-90" rx="66.2946" ry="18"/>
<text text-anchor="middle" x="545.4789" y="-87.2" font-family="Times,serif" font-size="11.00" fill="#000000">To pose pick_table2!</text>
</g>
<!-- Fallback &#45;&gt;To pose pick_table2! -->
<g id="edge14" class="edge">
<title>Fallback &#45;&gt;To pose pick_table2!</title>
<path fill="none" stroke="#000000" d="M392.7204,-150.432C421.1629,-139.18 464.846,-121.8987 498.225,-108.6939"/>
<polygon fill="#000000" stroke="#000000" points="499.7727,-111.8456 507.7839,-104.9123 497.1976,-105.3364 499.7727,-111.8456"/>
</g>
<!-- Localise! -->
<g id="node8" class="node">
<title>Localise!</title>
<ellipse fill="#c0c0c0" stroke="#000000" cx="35.4789" cy="-18" rx="35.4579" ry="18"/>
<text text-anchor="middle" x="35.4789" y="-15.2" font-family="Times,serif" font-size="11.00" fill="#000000">Localise!</text>
</g>
<!-- Sequence &#45;&gt;Localise! -->
<g id="edge7" class="edge">
<title>Sequence &#45;&gt;Localise!</title>
<path fill="none" stroke="#000000" d="M268.2976,-75.1697C265.3497,-74.0108 262.3792,-72.9311 259.4789,-72 182.2148,-47.1938 158.2509,-59.1648 80.4789,-36 77.848,-35.2164 75.1568,-34.3401 72.4634,-33.4076"/>
<polygon fill="#000000" stroke="#000000" points="73.3974,-30.0218 62.804,-29.8492 70.9776,-36.5903 73.3974,-30.0218"/>
</g>
<!-- pick_table1 visited? -->
<g id="node9" class="node">
<title>pick_table1 visited?</title>
<ellipse fill="#c0c0c0" stroke="#000000" cx="152.4789" cy="-18" rx="63.2813" ry="18"/>
<text text-anchor="middle" x="152.4789" y="-15.2" font-family="Times,serif" font-size="11.00" fill="#000000">pick_table1 visited?</text>
</g>
<!-- Sequence &#45;&gt;pick_table1 visited? -->
<g id="edge8" class="edge">
<title>Sequence &#45;&gt;pick_table1 visited?</title>
<path fill="none" stroke="#000000" d="M268.304,-74.7307C246.5042,-64.0532 217.169,-49.6849 193.4762,-38.0803"/>
<polygon fill="#000000" stroke="#000000" points="194.8903,-34.8757 184.3701,-33.6202 191.8112,-41.1621 194.8903,-34.8757"/>
</g>
<!-- To pose pick_table0! -->
<g id="node10" class="node">
<title>To pose pick_table0!</title>
<ellipse fill="#c0c0c0" stroke="#000000" cx="299.4789" cy="-18" rx="66.2946" ry="18"/>
<text text-anchor="middle" x="299.4789" y="-15.2" font-family="Times,serif" font-size="11.00" fill="#000000">To pose pick_table0!</text>
</g>
<!-- Sequence &#45;&gt;To pose pick_table0! -->
<g id="edge9" class="edge">
<title>Sequence &#45;&gt;To pose pick_table0!</title>
<path fill="none" stroke="#000000" d="M299.4789,-71.8314C299.4789,-64.131 299.4789,-54.9743 299.4789,-46.4166"/>
<polygon fill="#000000" stroke="#000000" points="302.979,-46.4132 299.4789,-36.4133 295.979,-46.4133 302.979,-46.4132"/>
</g>
<!-- Tucked arm! -->
<g id="node12" class="node">
<title>Tucked arm!</title>
<ellipse fill="#c0c0c0" stroke="#000000" cx="428.4789" cy="-18" rx="44.498" ry="18"/>
<text text-anchor="middle" x="428.4789" y="-15.2" font-family="Times,serif" font-size="11.00" fill="#000000">Tucked arm!</text>
</g>
<!-- Sequence &#160;&#45;&gt;Tucked arm! -->
<g id="edge11" class="edge">
<title>Sequence &#160;&#45;&gt;Tucked arm!</title>
<path fill="none" stroke="#000000" d="M428.4789,-71.8314C428.4789,-64.131 428.4789,-54.9743 428.4789,-46.4166"/>
<polygon fill="#000000" stroke="#000000" points="431.979,-46.4132 428.4789,-36.4133 424.979,-46.4133 431.979,-46.4132"/>
</g>
<!-- pick_table2 visited? -->
<g id="node13" class="node">
<title>pick_table2 visited?</title>
<ellipse fill="#c0c0c0" stroke="#000000" cx="554.4789" cy="-18" rx="63.2813" ry="18"/>
<text text-anchor="middle" x="554.4789" y="-15.2" font-family="Times,serif" font-size="11.00" fill="#000000">pick_table2 visited?</text>
</g>
<!-- Sequence &#160;&#45;&gt;pick_table2 visited? -->
<g id="edge12" class="edge">
<title>Sequence &#160;&#45;&gt;pick_table2 visited?</title>
<path fill="none" stroke="#000000" d="M460.2741,-71.8314C477.5328,-61.9692 498.9714,-49.7186 517.035,-39.3965"/>
<polygon fill="#000000" stroke="#000000" points="519.1874,-42.1978 526.1334,-34.1975 515.7144,-36.12 519.1874,-42.1978"/>
</g>
<!-- To pose pick_table1! -->
<g id="node14" class="node">
<title>To pose pick_table1!</title>
<ellipse fill="#c0c0c0" stroke="#000000" cx="701.4789" cy="-18" rx="66.2946" ry="18"/>
<text text-anchor="middle" x="701.4789" y="-15.2" font-family="Times,serif" font-size="11.00" fill="#000000">To pose pick_table1!</text>
</g>
<!-- Sequence &#160;&#45;&gt;To pose pick_table1! -->
<g id="edge13" class="edge">
<title>Sequence &#160;&#45;&gt;To pose pick_table1!</title>
<path fill="none" stroke="#000000" d="M461.2812,-75.2862C464.3636,-74.1028 467.4627,-72.9857 470.4789,-72 538.1147,-49.8977 557.2162,-52.303 626.4789,-36 631.4829,-34.8222 636.6727,-33.5928 641.8801,-32.3538"/>
<polygon fill="#000000" stroke="#000000" points="642.9568,-35.6953 651.8717,-29.9704 641.3325,-28.8863 642.9568,-35.6953"/>
</g>
</g>
</svg>
