<?xml version="1.0" encoding="UTF-8" standalone="no"?>
<!DOCTYPE svg PUBLIC "-//W3C//DTD SVG 1.1//EN"
 "http://www.w3.org/Graphics/SVG/1.1/DTD/svg11.dtd">
<!-- Generated by graphviz version 2.40.1 (20161225.0304)
 -->
<!-- Title: fallback Pages: 1 -->
<svg width="802pt" height="332pt"
 viewBox="0.00 0.00 801.56 332.00" xmlns="http://www.w3.org/2000/svg" xmlns:xlink="http://www.w3.org/1999/xlink">
<g id="graph0" class="graph" transform="scale(1 1) rotate(0) translate(4 328)">
<title>fallback</title>
<polygon fill="#ffffff" stroke="transparent" points="-4,4 -4,-328 797.5592,-328 797.5592,4 -4,4"/>
<!-- Fallback -->
<g id="node1" class="node">
<title>Fallback</title>
<polygon fill="#00ffff" stroke="#000000" points="437.0973,-298.5442 437.0973,-313.4558 416.2443,-324 386.7537,-324 365.9007,-313.4558 365.9007,-298.5442 386.7537,-288 416.2443,-288 437.0973,-298.5442"/>
<text text-anchor="middle" x="401.499" y="-303.2" font-family="Times,serif" font-size="11.00" fill="#000000">Fallback</text>
</g>
<!-- Task_done? -->
<g id="node2" class="node">
<title>Task_done?</title>
<ellipse fill="#c0c0c0" stroke="#000000" cx="356.499" cy="-234" rx="42.1875" ry="18"/>
<text text-anchor="middle" x="356.499" y="-231.2" font-family="Times,serif" font-size="11.00" fill="#000000">Task_done?</text>
</g>
<!-- Fallback&#45;&gt;Task_done? -->
<g id="edge1" class="edge">
<title>Fallback&#45;&gt;Task_done?</title>
<path fill="none" stroke="#000000" d="M390.1436,-287.8314C384.8557,-279.3707 378.469,-269.1521 372.6873,-259.9014"/>
<polygon fill="#000000" stroke="#000000" points="375.6531,-258.0427 367.3851,-251.4177 369.7171,-261.7527 375.6531,-258.0427"/>
</g>
<!-- Sequence -->
<g id="node3" class="node">
<title>Sequence</title>
<polygon fill="#ffa500" stroke="#000000" points="475.999,-252 416.999,-252 416.999,-216 475.999,-216 475.999,-252"/>
<text text-anchor="middle" x="446.499" y="-231.2" font-family="Times,serif" font-size="11.00" fill="#000000">Sequence</text>
</g>
<!-- Fallback&#45;&gt;Sequence -->
<g id="edge2" class="edge">
<title>Fallback&#45;&gt;Sequence</title>
<path fill="none" stroke="#000000" d="M412.8544,-287.8314C417.9316,-279.7079 424.0217,-269.9637 429.6166,-261.0118"/>
<polygon fill="#000000" stroke="#000000" points="432.6587,-262.7483 434.9907,-252.4133 426.7227,-259.0383 432.6587,-262.7483"/>
</g>
<!-- Head up! -->
<g id="node4" class="node">
<title>Head up!</title>
<ellipse fill="#c0c0c0" stroke="#000000" cx="169.499" cy="-162" rx="34.7556" ry="18"/>
<text text-anchor="middle" x="169.499" y="-159.2" font-family="Times,serif" font-size="11.00" fill="#000000">Head up!</text>
</g>
<!-- Sequence&#45;&gt;Head up! -->
<g id="edge3" class="edge">
<title>Sequence&#45;&gt;Head up!</title>
<path fill="none" stroke="#000000" d="M416.9923,-219.4585C413.8299,-218.1789 410.6258,-216.9945 407.499,-216 323.93,-189.4199 297.6335,-204.7316 213.499,-180 210.9156,-179.2406 208.2761,-178.3824 205.6367,-177.463"/>
<polygon fill="#000000" stroke="#000000" points="206.7722,-174.151 196.1796,-173.9321 204.3237,-180.7088 206.7722,-174.151"/>
</g>
<!-- Localise! -->
<g id="node5" class="node">
<title>Localise!</title>
<ellipse fill="#c0c0c0" stroke="#000000" cx="257.499" cy="-162" rx="35.4579" ry="18"/>
<text text-anchor="middle" x="257.499" y="-159.2" font-family="Times,serif" font-size="11.00" fill="#000000">Localise!</text>
</g>
<!-- Sequence&#45;&gt;Localise! -->
<g id="edge4" class="edge">
<title>Sequence&#45;&gt;Localise!</title>
<path fill="none" stroke="#000000" d="M416.8285,-219.9158C413.6981,-218.547 410.5462,-217.2168 407.499,-216 361.2925,-197.5497 348.101,-197.4273 301.499,-180 299.1315,-179.1147 296.7008,-178.1835 294.2558,-177.2303"/>
<polygon fill="#000000" stroke="#000000" points="295.4444,-173.9364 284.8589,-173.4937 292.858,-180.441 295.4444,-173.9364"/>
</g>
<!-- Fallback  -->
<g id="node6" class="node">
<title>Fallback </title>
<polygon fill="#00ffff" stroke="#000000" points="386.0031,-154.5442 386.0031,-169.4558 364.0337,-180 332.9643,-180 310.9949,-169.4558 310.9949,-154.5442 332.9643,-144 364.0337,-144 386.0031,-154.5442"/>
<text text-anchor="middle" x="348.499" y="-159.2" font-family="Times,serif" font-size="11.00" fill="#000000">Fallback </text>
</g>
<!-- Sequence&#45;&gt;Fallback  -->
<g id="edge5" class="edge">
<title>Sequence&#45;&gt;Fallback </title>
<path fill="none" stroke="#000000" d="M421.7695,-215.8314C408.4337,-206.0337 391.8893,-193.8786 377.8978,-183.5991"/>
<polygon fill="#000000" stroke="#000000" points="379.6987,-180.5792 369.5676,-177.479 375.5541,-186.2204 379.6987,-180.5792"/>
</g>
<!-- Head down! -->
<g id="node16" class="node">
<title>Head down!</title>
<ellipse fill="#c0c0c0" stroke="#000000" cx="446.499" cy="-162" rx="42.8909" ry="18"/>
<text text-anchor="middle" x="446.499" y="-159.2" font-family="Times,serif" font-size="11.00" fill="#000000">Head down!</text>
</g>
<!-- Sequence&#45;&gt;Head down! -->
<g id="edge15" class="edge">
<title>Sequence&#45;&gt;Head down!</title>
<path fill="none" stroke="#000000" d="M446.499,-215.8314C446.499,-208.131 446.499,-198.9743 446.499,-190.4166"/>
<polygon fill="#000000" stroke="#000000" points="449.9991,-190.4132 446.499,-180.4133 442.9991,-190.4133 449.9991,-190.4132"/>
</g>
<!-- Pick up! -->
<g id="node17" class="node">
<title>Pick up!</title>
<ellipse fill="#c0c0c0" stroke="#000000" cx="539.499" cy="-162" rx="31.7423" ry="18"/>
<text text-anchor="middle" x="539.499" y="-159.2" font-family="Times,serif" font-size="11.00" fill="#000000">Pick up!</text>
</g>
<!-- Sequence&#45;&gt;Pick up! -->
<g id="edge16" class="edge">
<title>Sequence&#45;&gt;Pick up!</title>
<path fill="none" stroke="#000000" d="M469.9668,-215.8314C482.8895,-205.8267 498.9873,-193.3639 512.4384,-182.9502"/>
<polygon fill="#000000" stroke="#000000" points="514.6549,-185.6605 520.4195,-176.7712 510.3696,-180.1255 514.6549,-185.6605"/>
</g>
<!-- To pose place_table! -->
<g id="node18" class="node">
<title>To pose place_table!</title>
<ellipse fill="#c0c0c0" stroke="#000000" cx="655.499" cy="-162" rx="66.2946" ry="18"/>
<text text-anchor="middle" x="655.499" y="-159.2" font-family="Times,serif" font-size="11.00" fill="#000000">To pose place_table!</text>
</g>
<!-- Sequence&#45;&gt;To pose place_table! -->
<g id="edge17" class="edge">
<title>Sequence&#45;&gt;To pose place_table!</title>
<path fill="none" stroke="#000000" d="M476.0003,-223.8369C509.3684,-212.3416 564.2994,-193.4181 604.6209,-179.5274"/>
<polygon fill="#000000" stroke="#000000" points="605.9619,-182.7674 614.2765,-176.201 603.6818,-176.1491 605.9619,-182.7674"/>
</g>
<!-- Place! -->
<g id="node19" class="node">
<title>Place!</title>
<ellipse fill="#c0c0c0" stroke="#000000" cx="766.499" cy="-162" rx="27.1205" ry="18"/>
<text text-anchor="middle" x="766.499" y="-159.2" font-family="Times,serif" font-size="11.00" fill="#000000">Place!</text>
</g>
<!-- Sequence&#45;&gt;Place! -->
<g id="edge18" class="edge">
<title>Sequence&#45;&gt;Place!</title>
<path fill="none" stroke="#000000" d="M476.2088,-231.0779C528.6619,-225.3238 640.6311,-210.3582 730.499,-180 732.3857,-179.3626 734.2986,-178.6441 736.2083,-177.8704"/>
<polygon fill="#000000" stroke="#000000" points="737.9027,-180.9464 745.5959,-173.6619 735.0391,-174.5589 737.9027,-180.9464"/>
</g>
<!-- Have block? -->
<g id="node7" class="node">
<title>Have block?</title>
<ellipse fill="#c0c0c0" stroke="#000000" cx="201.499" cy="-90" rx="43.7956" ry="18"/>
<text text-anchor="middle" x="201.499" y="-87.2" font-family="Times,serif" font-size="11.00" fill="#000000">Have block?</text>
</g>
<!-- Fallback &#45;&gt;Have block? -->
<g id="edge6" class="edge">
<title>Fallback &#45;&gt;Have block?</title>
<path fill="none" stroke="#000000" d="M322.2183,-149.1278C299.05,-137.7801 265.0265,-121.1155 239,-108.3679"/>
<polygon fill="#000000" stroke="#000000" points="240.3283,-105.1212 229.8081,-103.8657 237.2492,-111.4076 240.3283,-105.1212"/>
</g>
<!-- Sequence  -->
<g id="node8" class="node">
<title>Sequence </title>
<polygon fill="#ffa500" stroke="#000000" points="325.499,-108 263.499,-108 263.499,-72 325.499,-72 325.499,-108"/>
<text text-anchor="middle" x="294.499" y="-87.2" font-family="Times,serif" font-size="11.00" fill="#000000">Sequence </text>
</g>
<!-- Fallback &#45;&gt;Sequence  -->
<g id="edge7" class="edge">
<title>Fallback &#45;&gt;Sequence </title>
<path fill="none" stroke="#000000" d="M334.8725,-143.8314C328.653,-135.5386 321.1668,-125.557 314.339,-116.4533"/>
<polygon fill="#000000" stroke="#000000" points="317.109,-114.3133 308.3089,-108.4133 311.509,-118.5133 317.109,-114.3133"/>
</g>
<!-- Sequence &#160; -->
<g id="node12" class="node">
<title>Sequence &#160;</title>
<polygon fill="#ffa500" stroke="#000000" points="435.999,-108 370.999,-108 370.999,-72 435.999,-72 435.999,-108"/>
<text text-anchor="middle" x="403.499" y="-87.2" font-family="Times,serif" font-size="11.00" fill="#000000">Sequence &#160;</text>
</g>
<!-- Fallback &#45;&gt;Sequence &#160; -->
<g id="edge11" class="edge">
<title>Fallback &#45;&gt;Sequence &#160;</title>
<path fill="none" stroke="#000000" d="M362.3778,-143.8314C368.7126,-135.5386 376.3374,-125.557 383.2916,-116.4533"/>
<polygon fill="#000000" stroke="#000000" points="386.1442,-118.4847 389.4333,-108.4133 380.5815,-114.2353 386.1442,-118.4847"/>
</g>
<!-- To pose pick_table1! -->
<g id="node15" class="node">
<title>To pose pick_table1!</title>
<ellipse fill="#c0c0c0" stroke="#000000" cx="520.499" cy="-90" rx="66.2946" ry="18"/>
<text text-anchor="middle" x="520.499" y="-87.2" font-family="Times,serif" font-size="11.00" fill="#000000">To pose pick_table1!</text>
</g>
<!-- Fallback &#45;&gt;To pose pick_table1! -->
<g id="edge14" class="edge">
<title>Fallback &#45;&gt;To pose pick_table1!</title>
<path fill="none" stroke="#000000" d="M376.9013,-150.1107C403.5342,-138.962 443.8065,-122.1038 474.9313,-109.0749"/>
<polygon fill="#000000" stroke="#000000" points="476.3988,-112.2549 484.2718,-105.1649 473.6958,-105.7978 476.3988,-112.2549"/>
</g>
<!-- Tucked arm! -->
<g id="node9" class="node">
<title>Tucked arm!</title>
<ellipse fill="#c0c0c0" stroke="#000000" cx="44.499" cy="-18" rx="44.498" ry="18"/>
<text text-anchor="middle" x="44.499" y="-15.2" font-family="Times,serif" font-size="11.00" fill="#000000">Tucked arm!</text>
</g>
<!-- Sequence &#45;&gt;Tucked arm! -->
<g id="edge8" class="edge">
<title>Sequence &#45;&gt;Tucked arm!</title>
<path fill="none" stroke="#000000" d="M263.2904,-75.253C260.3481,-74.0765 257.3865,-72.9701 254.499,-72 186.638,-49.2002 166.3704,-55.5362 97.499,-36 94.3204,-35.0984 91.0513,-34.1187 87.7717,-33.0977"/>
<polygon fill="#000000" stroke="#000000" points="88.5732,-29.6789 77.9818,-29.9471 86.4287,-36.3423 88.5732,-29.6789"/>
</g>
<!-- Cube 0 placed? -->
<g id="node10" class="node">
<title>Cube 0 placed?</title>
<ellipse fill="#c0c0c0" stroke="#000000" cx="158.499" cy="-18" rx="51.931" ry="18"/>
<text text-anchor="middle" x="158.499" y="-15.2" font-family="Times,serif" font-size="11.00" fill="#000000">Cube 0 placed?</text>
</g>
<!-- Sequence &#45;&gt;Cube 0 placed? -->
<g id="edge9" class="edge">
<title>Sequence &#45;&gt;Cube 0 placed?</title>
<path fill="none" stroke="#000000" d="M263.2978,-73.4817C243.3506,-62.9214 217.3578,-49.1605 196.2493,-37.9855"/>
<polygon fill="#000000" stroke="#000000" points="197.7101,-34.7986 187.2346,-33.213 194.4349,-40.9852 197.7101,-34.7986"/>
</g>
<!-- To pose pick_table2! -->
<g id="node11" class="node">
<title>To pose pick_table2!</title>
<ellipse fill="#c0c0c0" stroke="#000000" cx="294.499" cy="-18" rx="66.2946" ry="18"/>
<text text-anchor="middle" x="294.499" y="-15.2" font-family="Times,serif" font-size="11.00" fill="#000000">To pose pick_table2!</text>
</g>
<!-- Sequence &#45;&gt;To pose pick_table2! -->
<g id="edge10" class="edge">
<title>Sequence &#45;&gt;To pose pick_table2!</title>
<path fill="none" stroke="#000000" d="M294.499,-71.8314C294.499,-64.131 294.499,-54.9743 294.499,-46.4166"/>
<polygon fill="#000000" stroke="#000000" points="297.9991,-46.4132 294.499,-36.4133 290.9991,-46.4133 297.9991,-46.4132"/>
</g>
<!-- Cube 1 placed? -->
<g id="node13" class="node">
<title>Cube 1 placed?</title>
<ellipse fill="#c0c0c0" stroke="#000000" cx="430.499" cy="-18" rx="51.931" ry="18"/>
<text text-anchor="middle" x="430.499" y="-15.2" font-family="Times,serif" font-size="11.00" fill="#000000">Cube 1 placed?</text>
</g>
<!-- Sequence &#160;&#45;&gt;Cube 1 placed? -->
<g id="edge12" class="edge">
<title>Sequence &#160;&#45;&gt;Cube 1 placed?</title>
<path fill="none" stroke="#000000" d="M410.3122,-71.8314C413.3088,-63.8406 416.8933,-54.2819 420.2047,-45.4514"/>
<polygon fill="#000000" stroke="#000000" points="423.5473,-46.5057 423.7815,-35.9134 416.993,-44.0478 423.5473,-46.5057"/>
</g>
<!-- To pose pick_table0! -->
<g id="node14" class="node">
<title>To pose pick_table0!</title>
<ellipse fill="#c0c0c0" stroke="#000000" cx="566.499" cy="-18" rx="66.2946" ry="18"/>
<text text-anchor="middle" x="566.499" y="-15.2" font-family="Times,serif" font-size="11.00" fill="#000000">To pose pick_table0!</text>
</g>
<!-- Sequence &#160;&#45;&gt;To pose pick_table0! -->
<g id="edge13" class="edge">
<title>Sequence &#160;&#45;&gt;To pose pick_table0!</title>
<path fill="none" stroke="#000000" d="M436.0927,-75.6028C460.8585,-64.6633 495.1854,-49.5005 522.4041,-37.4775"/>
<polygon fill="#000000" stroke="#000000" points="523.9748,-40.61 531.7079,-33.3678 521.1464,-34.2069 523.9748,-40.61"/>
</g>
</g>
</svg>
