<?xml version="1.0" encoding="UTF-8" standalone="no"?>
<!DOCTYPE svg PUBLIC "-//W3C//DTD SVG 1.1//EN"
 "http://www.w3.org/Graphics/SVG/1.1/DTD/svg11.dtd">
<!-- Generated by graphviz version 2.40.1 (20161225.0304)
 -->
<!-- Title: fallback Pages: 1 -->
<svg width="2123pt" height="476pt"
 viewBox="0.00 0.00 2123.15 476.00" xmlns="http://www.w3.org/2000/svg" xmlns:xlink="http://www.w3.org/1999/xlink">
<g id="graph0" class="graph" transform="scale(1 1) rotate(0) translate(4 472)">
<title>fallback</title>
<polygon fill="#ffffff" stroke="transparent" points="-4,4 -4,-472 2119.1472,-472 2119.1472,4 -4,4"/>
<!-- Fallback -->
<g id="node1" class="node">
<title>Fallback</title>
<polygon fill="#00ffff" stroke="#000000" points="953.0772,-442.5442 953.0772,-457.4558 932.2242,-468 902.7336,-468 881.8806,-457.4558 881.8806,-442.5442 902.7336,-432 932.2242,-432 953.0772,-442.5442"/>
<text text-anchor="middle" x="917.4789" y="-447.2" font-family="Times,serif" font-size="11.00" fill="#000000">Fallback</text>
</g>
<!-- Task_done? -->
<g id="node2" class="node">
<title>Task_done?</title>
<ellipse fill="#c0c0c0" stroke="#000000" cx="872.4789" cy="-378" rx="42.1875" ry="18"/>
<text text-anchor="middle" x="872.4789" y="-375.2" font-family="Times,serif" font-size="11.00" fill="#000000">Task_done?</text>
</g>
<!-- Fallback&#45;&gt;Task_done? -->
<g id="edge1" class="edge">
<title>Fallback&#45;&gt;Task_done?</title>
<path fill="none" stroke="#000000" d="M906.1235,-431.8314C900.8356,-423.3707 894.449,-413.1521 888.6673,-403.9014"/>
<polygon fill="#000000" stroke="#000000" points="891.633,-402.0427 883.365,-395.4177 885.697,-405.7527 891.633,-402.0427"/>
</g>
<!-- Sequence -->
<g id="node3" class="node">
<title>Sequence</title>
<polygon fill="#ffa500" stroke="#000000" points="991.9789,-396 932.9789,-396 932.9789,-360 991.9789,-360 991.9789,-396"/>
<text text-anchor="middle" x="962.4789" y="-375.2" font-family="Times,serif" font-size="11.00" fill="#000000">Sequence</text>
</g>
<!-- Fallback&#45;&gt;Sequence -->
<g id="edge2" class="edge">
<title>Fallback&#45;&gt;Sequence</title>
<path fill="none" stroke="#000000" d="M928.8343,-431.8314C933.9115,-423.7079 940.0016,-413.9637 945.5966,-405.0118"/>
<polygon fill="#000000" stroke="#000000" points="948.6386,-406.7483 950.9706,-396.4133 942.7026,-403.0383 948.6386,-406.7483"/>
</g>
<!-- Fallback  -->
<g id="node4" class="node">
<title>Fallback </title>
<polygon fill="#00ffff" stroke="#000000" points="400.983,-298.5442 400.983,-313.4558 379.0136,-324 347.9442,-324 325.9748,-313.4558 325.9748,-298.5442 347.9442,-288 379.0136,-288 400.983,-298.5442"/>
<text text-anchor="middle" x="363.4789" y="-303.2" font-family="Times,serif" font-size="11.00" fill="#000000">Fallback </text>
</g>
<!-- Sequence&#45;&gt;Fallback  -->
<g id="edge3" class="edge">
<title>Sequence&#45;&gt;Fallback </title>
<path fill="none" stroke="#000000" d="M932.6217,-363.0096C929.5832,-361.8523 926.5022,-360.8181 923.4789,-360 827.2684,-333.9656 528.5408,-315.121 411.3494,-308.5491"/>
<polygon fill="#000000" stroke="#000000" points="411.424,-305.048 401.2452,-307.9878 411.0356,-312.0372 411.424,-305.048"/>
</g>
<!-- Fallback &#160;&#160; -->
<g id="node18" class="node">
<title>Fallback &#160;&#160;</title>
<polygon fill="#00ffff" stroke="#000000" points="1004.2926,-298.5442 1004.2926,-313.4558 979.7987,-324 945.1591,-324 920.6653,-313.4558 920.6653,-298.5442 945.1591,-288 979.7987,-288 1004.2926,-298.5442"/>
<text text-anchor="middle" x="962.4789" y="-303.2" font-family="Times,serif" font-size="11.00" fill="#000000">Fallback &#160;&#160;</text>
</g>
<!-- Sequence&#45;&gt;Fallback &#160;&#160; -->
<g id="edge17" class="edge">
<title>Sequence&#45;&gt;Fallback &#160;&#160;</title>
<path fill="none" stroke="#000000" d="M962.4789,-359.8314C962.4789,-352.131 962.4789,-342.9743 962.4789,-334.4166"/>
<polygon fill="#000000" stroke="#000000" points="965.979,-334.4132 962.4789,-324.4133 958.979,-334.4133 965.979,-334.4132"/>
</g>
<!-- Fallback &#160;&#160;&#160;&#160; -->
<g id="node32" class="node">
<title>Fallback &#160;&#160;&#160;&#160;</title>
<polygon fill="#00ffff" stroke="#000000" points="1367.1027,-298.5442 1367.1027,-313.4558 1340.3769,-324 1302.581,-324 1275.8552,-313.4558 1275.8552,-298.5442 1302.581,-288 1340.3769,-288 1367.1027,-298.5442"/>
<text text-anchor="middle" x="1321.4789" y="-303.2" font-family="Times,serif" font-size="11.00" fill="#000000">Fallback &#160;&#160;&#160;&#160;</text>
</g>
<!-- Sequence&#45;&gt;Fallback &#160;&#160;&#160;&#160; -->
<g id="edge31" class="edge">
<title>Sequence&#45;&gt;Fallback &#160;&#160;&#160;&#160;</title>
<path fill="none" stroke="#000000" d="M992.1628,-372.0467C1052.9352,-359.8583 1192.2318,-331.9214 1268.7497,-316.5752"/>
<polygon fill="#000000" stroke="#000000" points="1269.5473,-319.985 1278.6638,-314.5869 1268.1707,-313.1217 1269.5473,-319.985"/>
</g>
<!-- Cube 0 placed? -->
<g id="node5" class="node">
<title>Cube 0 placed?</title>
<ellipse fill="#c0c0c0" stroke="#000000" cx="262.4789" cy="-234" rx="51.931" ry="18"/>
<text text-anchor="middle" x="262.4789" y="-231.2" font-family="Times,serif" font-size="11.00" fill="#000000">Cube 0 placed?</text>
</g>
<!-- Fallback &#45;&gt;Cube 0 placed? -->
<g id="edge4" class="edge">
<title>Fallback &#45;&gt;Cube 0 placed?</title>
<path fill="none" stroke="#000000" d="M342.0594,-290.7307C327.9884,-280.6998 309.348,-267.4116 293.6452,-256.2175"/>
<polygon fill="#000000" stroke="#000000" points="295.4457,-253.2028 285.2712,-250.248 291.3824,-258.9028 295.4457,-253.2028"/>
</g>
<!-- Sequence  -->
<g id="node6" class="node">
<title>Sequence </title>
<polygon fill="#ffa500" stroke="#000000" points="394.4789,-252 332.4789,-252 332.4789,-216 394.4789,-216 394.4789,-252"/>
<text text-anchor="middle" x="363.4789" y="-231.2" font-family="Times,serif" font-size="11.00" fill="#000000">Sequence </text>
</g>
<!-- Fallback &#45;&gt;Sequence  -->
<g id="edge5" class="edge">
<title>Fallback &#45;&gt;Sequence </title>
<path fill="none" stroke="#000000" d="M363.4789,-287.8314C363.4789,-280.131 363.4789,-270.9743 363.4789,-262.4166"/>
<polygon fill="#000000" stroke="#000000" points="366.979,-262.4132 363.4789,-252.4133 359.979,-262.4133 366.979,-262.4132"/>
</g>
<!-- Localise! -->
<g id="node7" class="node">
<title>Localise!</title>
<ellipse fill="#c0c0c0" stroke="#000000" cx="35.4789" cy="-162" rx="35.4579" ry="18"/>
<text text-anchor="middle" x="35.4789" y="-159.2" font-family="Times,serif" font-size="11.00" fill="#000000">Localise!</text>
</g>
<!-- Sequence &#45;&gt;Localise! -->
<g id="edge6" class="edge">
<title>Sequence &#45;&gt;Localise!</title>
<path fill="none" stroke="#000000" d="M332.3472,-219.0081C329.3889,-217.883 326.4024,-216.8555 323.4789,-216 218.2721,-185.2148 185.2016,-208.9641 79.4789,-180 76.882,-179.2885 74.2323,-178.4661 71.5855,-177.5724"/>
<polygon fill="#000000" stroke="#000000" points="72.7066,-174.2556 62.113,-174.096 70.2949,-180.8271 72.7066,-174.2556"/>
</g>
<!-- Head up! -->
<g id="node8" class="node">
<title>Head up!</title>
<ellipse fill="#c0c0c0" stroke="#000000" cx="123.4789" cy="-162" rx="34.7556" ry="18"/>
<text text-anchor="middle" x="123.4789" y="-159.2" font-family="Times,serif" font-size="11.00" fill="#000000">Head up!</text>
</g>
<!-- Sequence &#45;&gt;Head up! -->
<g id="edge7" class="edge">
<title>Sequence &#45;&gt;Head up!</title>
<path fill="none" stroke="#000000" d="M332.2689,-219.2573C329.3269,-218.0799 326.3657,-216.9721 323.4789,-216 256.0444,-193.2911 235.2955,-201.5411 167.4789,-180 164.9126,-179.1848 162.2858,-178.2851 159.6556,-177.3356"/>
<polygon fill="#000000" stroke="#000000" points="160.8088,-174.0296 150.2178,-173.7414 158.3174,-180.5713 160.8088,-174.0296"/>
</g>
<!-- Fallback &#160; -->
<g id="node9" class="node">
<title>Fallback &#160;</title>
<polygon fill="#00ffff" stroke="#000000" points="256.3877,-154.5442 256.3877,-169.4558 233.0097,-180 199.9482,-180 176.5701,-169.4558 176.5701,-154.5442 199.9482,-144 233.0097,-144 256.3877,-154.5442"/>
<text text-anchor="middle" x="216.4789" y="-159.2" font-family="Times,serif" font-size="11.00" fill="#000000">Fallback &#160;</text>
</g>
<!-- Sequence &#45;&gt;Fallback &#160; -->
<g id="edge8" class="edge">
<title>Sequence &#45;&gt;Fallback &#160;</title>
<path fill="none" stroke="#000000" d="M332.304,-218.7307C309.0906,-207.3608 277.3328,-191.806 252.9418,-179.8594"/>
<polygon fill="#000000" stroke="#000000" points="254.1754,-176.5663 243.6552,-175.3108 251.0963,-182.8528 254.1754,-176.5663"/>
</g>
<!-- Head down! -->
<g id="node14" class="node">
<title>Head down!</title>
<ellipse fill="#c0c0c0" stroke="#000000" cx="316.4789" cy="-162" rx="42.8909" ry="18"/>
<text text-anchor="middle" x="316.4789" y="-159.2" font-family="Times,serif" font-size="11.00" fill="#000000">Head down!</text>
</g>
<!-- Sequence &#45;&gt;Head down! -->
<g id="edge13" class="edge">
<title>Sequence &#45;&gt;Head down!</title>
<path fill="none" stroke="#000000" d="M351.6188,-215.8314C346.0959,-207.3707 339.4254,-197.1521 333.3868,-187.9014"/>
<polygon fill="#000000" stroke="#000000" points="336.2459,-185.8783 327.8488,-179.4177 330.3843,-189.7047 336.2459,-185.8783"/>
</g>
<!-- Pick up! -->
<g id="node15" class="node">
<title>Pick up!</title>
<ellipse fill="#c0c0c0" stroke="#000000" cx="409.4789" cy="-162" rx="31.7423" ry="18"/>
<text text-anchor="middle" x="409.4789" y="-159.2" font-family="Times,serif" font-size="11.00" fill="#000000">Pick up!</text>
</g>
<!-- Sequence &#45;&gt;Pick up! -->
<g id="edge14" class="edge">
<title>Sequence &#45;&gt;Pick up!</title>
<path fill="none" stroke="#000000" d="M375.0867,-215.8314C380.4921,-207.3707 387.0207,-197.1521 392.9308,-187.9014"/>
<polygon fill="#000000" stroke="#000000" points="395.9165,-189.7291 398.3509,-179.4177 390.0176,-185.9603 395.9165,-189.7291"/>
</g>
<!-- To pose place_table! -->
<g id="node16" class="node">
<title>To pose place_table!</title>
<ellipse fill="#c0c0c0" stroke="#000000" cx="525.4789" cy="-162" rx="66.2946" ry="18"/>
<text text-anchor="middle" x="525.4789" y="-159.2" font-family="Times,serif" font-size="11.00" fill="#000000">To pose place_table!</text>
</g>
<!-- Sequence &#45;&gt;To pose place_table! -->
<g id="edge15" class="edge">
<title>Sequence &#45;&gt;To pose place_table!</title>
<path fill="none" stroke="#000000" d="M394.7142,-220.1177C419.3059,-209.188 453.8895,-193.8175 481.3146,-181.6286"/>
<polygon fill="#000000" stroke="#000000" points="482.9719,-184.7222 490.6886,-177.4624 480.1289,-178.3255 482.9719,-184.7222"/>
</g>
<!-- Place! -->
<g id="node17" class="node">
<title>Place!</title>
<ellipse fill="#c0c0c0" stroke="#000000" cx="636.4789" cy="-162" rx="27.1205" ry="18"/>
<text text-anchor="middle" x="636.4789" y="-159.2" font-family="Times,serif" font-size="11.00" fill="#000000">Place!</text>
</g>
<!-- Sequence &#45;&gt;Place! -->
<g id="edge16" class="edge">
<title>Sequence &#45;&gt;Place!</title>
<path fill="none" stroke="#000000" d="M394.8318,-229.3184C440.848,-221.9006 528.9644,-205.6064 600.4789,-180 602.3539,-179.3287 604.2575,-178.5837 606.1602,-177.7899"/>
<polygon fill="#000000" stroke="#000000" points="607.8762,-180.8544 615.5291,-173.5275 604.9774,-174.4828 607.8762,-180.8544"/>
</g>
<!-- Have block? -->
<g id="node10" class="node">
<title>Have block?</title>
<ellipse fill="#c0c0c0" stroke="#000000" cx="169.4789" cy="-90" rx="43.7956" ry="18"/>
<text text-anchor="middle" x="169.4789" y="-87.2" font-family="Times,serif" font-size="11.00" fill="#000000">Have block?</text>
</g>
<!-- Fallback &#160;&#45;&gt;Have block? -->
<g id="edge9" class="edge">
<title>Fallback &#160;&#45;&gt;Have block?</title>
<path fill="none" stroke="#000000" d="M204.6188,-143.8314C199.0959,-135.3707 192.4254,-125.1521 186.3868,-115.9014"/>
<polygon fill="#000000" stroke="#000000" points="189.2459,-113.8783 180.8488,-107.4177 183.3843,-117.7047 189.2459,-113.8783"/>
</g>
<!-- Sequence &#160; -->
<g id="node11" class="node">
<title>Sequence &#160;</title>
<polygon fill="#ffa500" stroke="#000000" points="295.9789,-108 230.9789,-108 230.9789,-72 295.9789,-72 295.9789,-108"/>
<text text-anchor="middle" x="263.4789" y="-87.2" font-family="Times,serif" font-size="11.00" fill="#000000">Sequence &#160;</text>
</g>
<!-- Fallback &#160;&#45;&gt;Sequence &#160; -->
<g id="edge10" class="edge">
<title>Fallback &#160;&#45;&gt;Sequence &#160;</title>
<path fill="none" stroke="#000000" d="M228.339,-143.8314C233.6419,-135.7079 240.0026,-125.9637 245.8462,-117.0118"/>
<polygon fill="#000000" stroke="#000000" points="248.9237,-118.7003 251.4592,-108.4133 243.0621,-114.8739 248.9237,-118.7003"/>
</g>
<!-- Tucked arm! -->
<g id="node12" class="node">
<title>Tucked arm!</title>
<ellipse fill="#c0c0c0" stroke="#000000" cx="199.4789" cy="-18" rx="44.498" ry="18"/>
<text text-anchor="middle" x="199.4789" y="-15.2" font-family="Times,serif" font-size="11.00" fill="#000000">Tucked arm!</text>
</g>
<!-- Sequence &#160;&#45;&gt;Tucked arm! -->
<g id="edge11" class="edge">
<title>Sequence &#160;&#45;&gt;Tucked arm!</title>
<path fill="none" stroke="#000000" d="M247.329,-71.8314C239.5758,-63.109 230.1619,-52.5183 221.742,-43.0459"/>
<polygon fill="#000000" stroke="#000000" points="224.221,-40.5665 214.9613,-35.4177 218.9891,-45.2171 224.221,-40.5665"/>
</g>
<!-- To pose pick_table0! -->
<g id="node13" class="node">
<title>To pose pick_table0!</title>
<ellipse fill="#c0c0c0" stroke="#000000" cx="328.4789" cy="-18" rx="66.2946" ry="18"/>
<text text-anchor="middle" x="328.4789" y="-15.2" font-family="Times,serif" font-size="11.00" fill="#000000">To pose pick_table0!</text>
</g>
<!-- Sequence &#160;&#45;&gt;To pose pick_table0! -->
<g id="edge12" class="edge">
<title>Sequence &#160;&#45;&gt;To pose pick_table0!</title>
<path fill="none" stroke="#000000" d="M279.8812,-71.8314C287.638,-63.2392 297.0316,-52.834 305.4845,-43.4708"/>
<polygon fill="#000000" stroke="#000000" points="308.204,-45.6815 312.3071,-35.9134 303.0081,-40.9907 308.204,-45.6815"/>
</g>
<!-- Cube 1 placed? -->
<g id="node19" class="node">
<title>Cube 1 placed?</title>
<ellipse fill="#c0c0c0" stroke="#000000" cx="910.4789" cy="-234" rx="51.931" ry="18"/>
<text text-anchor="middle" x="910.4789" y="-231.2" font-family="Times,serif" font-size="11.00" fill="#000000">Cube 1 placed?</text>
</g>
<!-- Fallback &#160;&#160;&#45;&gt;Cube 1 placed? -->
<g id="edge18" class="edge">
<title>Fallback &#160;&#160;&#45;&gt;Cube 1 placed?</title>
<path fill="none" stroke="#000000" d="M949.3571,-287.8314C943.2758,-279.411 935.9369,-269.2495 929.2811,-260.0338"/>
<polygon fill="#000000" stroke="#000000" points="932.1087,-257.971 923.4164,-251.9134 926.434,-262.0695 932.1087,-257.971"/>
</g>
<!-- Sequence &#160;&#160; -->
<g id="node20" class="node">
<title>Sequence &#160;&#160;</title>
<polygon fill="#ffa500" stroke="#000000" points="1048.4789,-252 980.4789,-252 980.4789,-216 1048.4789,-216 1048.4789,-252"/>
<text text-anchor="middle" x="1014.4789" y="-231.2" font-family="Times,serif" font-size="11.00" fill="#000000">Sequence &#160;&#160;</text>
</g>
<!-- Fallback &#160;&#160;&#45;&gt;Sequence &#160;&#160; -->
<g id="edge19" class="edge">
<title>Fallback &#160;&#160;&#45;&gt;Sequence &#160;&#160;</title>
<path fill="none" stroke="#000000" d="M975.6007,-287.8314C981.5288,-279.6232 988.6519,-269.7606 995.1723,-260.7323"/>
<polygon fill="#000000" stroke="#000000" points="998.1629,-262.5693 1001.1805,-252.4133 992.4881,-258.4708 998.1629,-262.5693"/>
</g>
<!-- Localise!  -->
<g id="node21" class="node">
<title>Localise! </title>
<ellipse fill="#c0c0c0" stroke="#000000" cx="718.4789" cy="-162" rx="37.0671" ry="18"/>
<text text-anchor="middle" x="718.4789" y="-159.2" font-family="Times,serif" font-size="11.00" fill="#000000">Localise! </text>
</g>
<!-- Sequence &#160;&#160;&#45;&gt;Localise!  -->
<g id="edge20" class="edge">
<title>Sequence &#160;&#160;&#45;&gt;Localise! </title>
<path fill="none" stroke="#000000" d="M980.4617,-218.9487C977.4538,-217.8658 974.4308,-216.8626 971.4789,-216 881.8469,-189.8066 854.412,-205.1406 764.4789,-180 761.6915,-179.2208 758.8395,-178.3342 755.9884,-177.382"/>
<polygon fill="#000000" stroke="#000000" points="756.9883,-174.0226 746.3937,-173.9531 754.6325,-180.6143 756.9883,-174.0226"/>
</g>
<!-- Head up!  -->
<g id="node22" class="node">
<title>Head up! </title>
<ellipse fill="#c0c0c0" stroke="#000000" cx="810.4789" cy="-162" rx="36.8641" ry="18"/>
<text text-anchor="middle" x="810.4789" y="-159.2" font-family="Times,serif" font-size="11.00" fill="#000000">Head up! </text>
</g>
<!-- Sequence &#160;&#160;&#45;&gt;Head up!  -->
<g id="edge21" class="edge">
<title>Sequence &#160;&#160;&#45;&gt;Head up! </title>
<path fill="none" stroke="#000000" d="M980.3277,-219.3579C977.3489,-218.1861 974.3692,-217.0507 971.4789,-216 920.746,-197.5569 906.3572,-198.0383 855.4789,-180 853.1196,-179.1635 850.7008,-178.2784 848.2684,-177.3671"/>
<polygon fill="#000000" stroke="#000000" points="849.5053,-174.093 838.9154,-173.7712 846.9933,-180.6267 849.5053,-174.093"/>
</g>
<!-- Fallback &#160;&#160;&#160; -->
<g id="node23" class="node">
<title>Fallback &#160;&#160;&#160;</title>
<polygon fill="#00ffff" stroke="#000000" points="952.1976,-154.5442 952.1976,-169.4558 926.5878,-180 890.3701,-180 864.7603,-169.4558 864.7603,-154.5442 890.3701,-144 926.5878,-144 952.1976,-154.5442"/>
<text text-anchor="middle" x="908.4789" y="-159.2" font-family="Times,serif" font-size="11.00" fill="#000000">Fallback &#160;&#160;&#160;</text>
</g>
<!-- Sequence &#160;&#160;&#45;&gt;Fallback &#160;&#160;&#160; -->
<g id="edge22" class="edge">
<title>Sequence &#160;&#160;&#45;&gt;Fallback &#160;&#160;&#160;</title>
<path fill="none" stroke="#000000" d="M987.7307,-215.8314C973.3753,-206.0806 955.5824,-193.9948 940.495,-183.7468"/>
<polygon fill="#000000" stroke="#000000" points="942.2097,-180.6804 931.9709,-177.9568 938.2765,-186.4709 942.2097,-180.6804"/>
</g>
<!-- Head down!  -->
<g id="node28" class="node">
<title>Head down! </title>
<ellipse fill="#c0c0c0" stroke="#000000" cx="1014.4789" cy="-162" rx="44.498" ry="18"/>
<text text-anchor="middle" x="1014.4789" y="-159.2" font-family="Times,serif" font-size="11.00" fill="#000000">Head down! </text>
</g>
<!-- Sequence &#160;&#160;&#45;&gt;Head down!  -->
<g id="edge27" class="edge">
<title>Sequence &#160;&#160;&#45;&gt;Head down! </title>
<path fill="none" stroke="#000000" d="M1014.4789,-215.8314C1014.4789,-208.131 1014.4789,-198.9743 1014.4789,-190.4166"/>
<polygon fill="#000000" stroke="#000000" points="1017.979,-190.4132 1014.4789,-180.4133 1010.979,-190.4133 1017.979,-190.4132"/>
</g>
<!-- Pick up!  -->
<g id="node29" class="node">
<title>Pick up! </title>
<ellipse fill="#c0c0c0" stroke="#000000" cx="1110.4789" cy="-162" rx="33.8507" ry="18"/>
<text text-anchor="middle" x="1110.4789" y="-159.2" font-family="Times,serif" font-size="11.00" fill="#000000">Pick up! </text>
</g>
<!-- Sequence &#160;&#160;&#45;&gt;Pick up!  -->
<g id="edge28" class="edge">
<title>Sequence &#160;&#160;&#45;&gt;Pick up! </title>
<path fill="none" stroke="#000000" d="M1038.7038,-215.8314C1052.0433,-205.8267 1068.6604,-193.3639 1082.5454,-182.9502"/>
<polygon fill="#000000" stroke="#000000" points="1084.884,-185.5713 1090.784,-176.7712 1080.6839,-179.9713 1084.884,-185.5713"/>
</g>
<!-- To pose place_table!  -->
<g id="node30" class="node">
<title>To pose place_table! </title>
<ellipse fill="#c0c0c0" stroke="#000000" cx="1230.4789" cy="-162" rx="67.9024" ry="18"/>
<text text-anchor="middle" x="1230.4789" y="-159.2" font-family="Times,serif" font-size="11.00" fill="#000000">To pose place_table! </text>
</g>
<!-- Sequence &#160;&#160;&#45;&gt;To pose place_table!  -->
<g id="edge29" class="edge">
<title>Sequence &#160;&#160;&#45;&gt;To pose place_table! </title>
<path fill="none" stroke="#000000" d="M1048.7048,-222.5914C1083.5418,-210.979 1137.9961,-192.8276 1178.2289,-179.4167"/>
<polygon fill="#000000" stroke="#000000" points="1179.4918,-182.6851 1187.8718,-176.2024 1177.2781,-176.0443 1179.4918,-182.6851"/>
</g>
<!-- Place!  -->
<g id="node31" class="node">
<title>Place! </title>
<ellipse fill="#c0c0c0" stroke="#000000" cx="1345.4789" cy="-162" rx="28.7291" ry="18"/>
<text text-anchor="middle" x="1345.4789" y="-159.2" font-family="Times,serif" font-size="11.00" fill="#000000">Place! </text>
</g>
<!-- Sequence &#160;&#160;&#45;&gt;Place!  -->
<g id="edge30" class="edge">
<title>Sequence &#160;&#160;&#45;&gt;Place! </title>
<path fill="none" stroke="#000000" d="M1048.5767,-230.6278C1103.9541,-224.5095 1216.4172,-209.4022 1307.4789,-180 1309.6238,-179.3075 1311.804,-178.5202 1313.9798,-177.671"/>
<polygon fill="#000000" stroke="#000000" points="1315.551,-180.8058 1323.3682,-173.6544 1312.7975,-174.37 1315.551,-180.8058"/>
</g>
<!-- Have block?  -->
<g id="node24" class="node">
<title>Have block? </title>
<ellipse fill="#c0c0c0" stroke="#000000" cx="858.4789" cy="-90" rx="45.9042" ry="18"/>
<text text-anchor="middle" x="858.4789" y="-87.2" font-family="Times,serif" font-size="11.00" fill="#000000">Have block? </text>
</g>
<!-- Fallback &#160;&#160;&#160;&#45;&gt;Have block?  -->
<g id="edge23" class="edge">
<title>Fallback &#160;&#160;&#160;&#45;&gt;Have block? </title>
<path fill="none" stroke="#000000" d="M895.8618,-143.8314C889.9863,-135.3707 882.8901,-125.1521 876.466,-115.9014"/>
<polygon fill="#000000" stroke="#000000" points="879.1534,-113.635 870.5746,-107.4177 873.4038,-117.6278 879.1534,-113.635"/>
</g>
<!-- Sequence &#160;&#160;&#160; -->
<g id="node25" class="node">
<title>Sequence &#160;&#160;&#160;</title>
<polygon fill="#ffa500" stroke="#000000" points="992.9789,-108 921.9789,-108 921.9789,-72 992.9789,-72 992.9789,-108"/>
<text text-anchor="middle" x="957.4789" y="-87.2" font-family="Times,serif" font-size="11.00" fill="#000000">Sequence &#160;&#160;&#160;</text>
</g>
<!-- Fallback &#160;&#160;&#160;&#45;&gt;Sequence &#160;&#160;&#160; -->
<g id="edge24" class="edge">
<title>Fallback &#160;&#160;&#160;&#45;&gt;Sequence &#160;&#160;&#160;</title>
<path fill="none" stroke="#000000" d="M920.8437,-143.8314C926.4298,-135.6232 933.1419,-125.7606 939.2861,-116.7323"/>
<polygon fill="#000000" stroke="#000000" points="942.2149,-118.6496 944.9477,-108.4133 936.4279,-114.7112 942.2149,-118.6496"/>
</g>
<!-- Tucked arm!  -->
<g id="node26" class="node">
<title>Tucked arm! </title>
<ellipse fill="#c0c0c0" stroke="#000000" cx="892.4789" cy="-18" rx="46.1069" ry="18"/>
<text text-anchor="middle" x="892.4789" y="-15.2" font-family="Times,serif" font-size="11.00" fill="#000000">Tucked arm! </text>
</g>
<!-- Sequence &#160;&#160;&#160;&#45;&gt;Tucked arm!  -->
<g id="edge25" class="edge">
<title>Sequence &#160;&#160;&#160;&#45;&gt;Tucked arm! </title>
<path fill="none" stroke="#000000" d="M941.0767,-71.8314C933.2023,-63.109 923.6413,-52.5183 915.0898,-43.0459"/>
<polygon fill="#000000" stroke="#000000" points="917.5023,-40.495 908.2033,-35.4177 912.3064,-45.1858 917.5023,-40.495"/>
</g>
<!-- To pose pick_table1! -->
<g id="node27" class="node">
<title>To pose pick_table1!</title>
<ellipse fill="#c0c0c0" stroke="#000000" cx="1022.4789" cy="-18" rx="66.2946" ry="18"/>
<text text-anchor="middle" x="1022.4789" y="-15.2" font-family="Times,serif" font-size="11.00" fill="#000000">To pose pick_table1!</text>
</g>
<!-- Sequence &#160;&#160;&#160;&#45;&gt;To pose pick_table1! -->
<g id="edge26" class="edge">
<title>Sequence &#160;&#160;&#160;&#45;&gt;To pose pick_table1!</title>
<path fill="none" stroke="#000000" d="M973.8812,-71.8314C981.638,-63.2392 991.0316,-52.834 999.4845,-43.4708"/>
<polygon fill="#000000" stroke="#000000" points="1002.204,-45.6815 1006.3071,-35.9134 997.0081,-40.9907 1002.204,-45.6815"/>
</g>
<!-- Cube 2 placed? -->
<g id="node33" class="node">
<title>Cube 2 placed?</title>
<ellipse fill="#c0c0c0" stroke="#000000" cx="1321.4789" cy="-234" rx="51.931" ry="18"/>
<text text-anchor="middle" x="1321.4789" y="-231.2" font-family="Times,serif" font-size="11.00" fill="#000000">Cube 2 placed?</text>
</g>
<!-- Fallback &#160;&#160;&#160;&#160;&#45;&gt;Cube 2 placed? -->
<g id="edge32" class="edge">
<title>Fallback &#160;&#160;&#160;&#160;&#45;&gt;Cube 2 placed?</title>
<path fill="none" stroke="#000000" d="M1321.4789,-287.8314C1321.4789,-280.131 1321.4789,-270.9743 1321.4789,-262.4166"/>
<polygon fill="#000000" stroke="#000000" points="1324.979,-262.4132 1321.4789,-252.4133 1317.979,-262.4133 1324.979,-262.4132"/>
</g>
<!-- Sequence &#160;&#160;&#160;&#160; -->
<g id="node34" class="node">
<title>Sequence &#160;&#160;&#160;&#160;</title>
<polygon fill="#ffa500" stroke="#000000" points="1724.4789,-252 1650.4789,-252 1650.4789,-216 1724.4789,-216 1724.4789,-252"/>
<text text-anchor="middle" x="1687.4789" y="-231.2" font-family="Times,serif" font-size="11.00" fill="#000000">Sequence &#160;&#160;&#160;&#160;</text>
</g>
<!-- Fallback &#160;&#160;&#160;&#160;&#45;&gt;Sequence &#160;&#160;&#160;&#160; -->
<g id="edge33" class="edge">
<title>Fallback &#160;&#160;&#160;&#160;&#45;&gt;Sequence &#160;&#160;&#160;&#160;</title>
<path fill="none" stroke="#000000" d="M1364.54,-297.529C1433.6105,-283.9413 1568.6532,-257.3756 1640.268,-243.2874"/>
<polygon fill="#000000" stroke="#000000" points="1641.2221,-246.6669 1650.3585,-241.3024 1639.8709,-239.7985 1641.2221,-246.6669"/>
</g>
<!-- Localise! &#160; -->
<g id="node35" class="node">
<title>Localise! &#160;</title>
<ellipse fill="#c0c0c0" stroke="#000000" cx="1431.4789" cy="-162" rx="39.1741" ry="18"/>
<text text-anchor="middle" x="1431.4789" y="-159.2" font-family="Times,serif" font-size="11.00" fill="#000000">Localise! &#160;</text>
</g>
<!-- Sequence &#160;&#160;&#160;&#160;&#45;&gt;Localise! &#160; -->
<g id="edge34" class="edge">
<title>Sequence &#160;&#160;&#160;&#160;&#45;&gt;Localise! &#160;</title>
<path fill="none" stroke="#000000" d="M1650.1522,-225.4156C1608.4643,-215.5619 1539.1346,-198.3768 1480.4789,-180 1477.4088,-179.0381 1474.2479,-177.9969 1471.0804,-176.9168"/>
<polygon fill="#000000" stroke="#000000" points="1472.2373,-173.6136 1461.6425,-173.6004 1469.9166,-180.2177 1472.2373,-173.6136"/>
</g>
<!-- Head up! &#160; -->
<g id="node36" class="node">
<title>Head up! &#160;</title>
<ellipse fill="#c0c0c0" stroke="#000000" cx="1527.4789" cy="-162" rx="38.4712" ry="18"/>
<text text-anchor="middle" x="1527.4789" y="-159.2" font-family="Times,serif" font-size="11.00" fill="#000000">Head up! &#160;</text>
</g>
<!-- Sequence &#160;&#160;&#160;&#160;&#45;&gt;Head up! &#160; -->
<g id="edge35" class="edge">
<title>Sequence &#160;&#160;&#160;&#160;&#45;&gt;Head up! &#160;</title>
<path fill="none" stroke="#000000" d="M1650.3696,-217.3008C1624.6661,-205.7342 1590.5761,-190.3937 1564.822,-178.8044"/>
<polygon fill="#000000" stroke="#000000" points="1565.9501,-175.474 1555.3945,-174.562 1563.0775,-181.8575 1565.9501,-175.474"/>
</g>
<!-- Fallback &#160;&#160;&#160;&#160;&#160; -->
<g id="node37" class="node">
<title>Fallback &#160;&#160;&#160;&#160;&#160;</title>
<polygon fill="#00ffff" stroke="#000000" points="1679.0079,-154.5442 1679.0079,-169.4558 1651.1661,-180 1611.7918,-180 1583.95,-169.4558 1583.95,-154.5442 1611.7918,-144 1651.1661,-144 1679.0079,-154.5442"/>
<text text-anchor="middle" x="1631.4789" y="-159.2" font-family="Times,serif" font-size="11.00" fill="#000000">Fallback &#160;&#160;&#160;&#160;&#160;</text>
</g>
<!-- Sequence &#160;&#160;&#160;&#160;&#45;&gt;Fallback &#160;&#160;&#160;&#160;&#160; -->
<g id="edge36" class="edge">
<title>Sequence &#160;&#160;&#160;&#160;&#45;&gt;Fallback &#160;&#160;&#160;&#160;&#160;</title>
<path fill="none" stroke="#000000" d="M1673.3478,-215.8314C1666.8979,-207.5386 1659.1344,-197.557 1652.0538,-188.4533"/>
<polygon fill="#000000" stroke="#000000" points="1654.7025,-186.158 1645.8004,-180.4133 1649.1771,-190.4556 1654.7025,-186.158"/>
</g>
<!-- Head down! &#160; -->
<g id="node42" class="node">
<title>Head down! &#160;</title>
<ellipse fill="#c0c0c0" stroke="#000000" cx="1743.4789" cy="-162" rx="46.1069" ry="18"/>
<text text-anchor="middle" x="1743.4789" y="-159.2" font-family="Times,serif" font-size="11.00" fill="#000000">Head down! &#160;</text>
</g>
<!-- Sequence &#160;&#160;&#160;&#160;&#45;&gt;Head down! &#160; -->
<g id="edge41" class="edge">
<title>Sequence &#160;&#160;&#160;&#160;&#45;&gt;Head down! &#160;</title>
<path fill="none" stroke="#000000" d="M1701.6101,-215.8314C1708.3263,-207.1962 1716.4668,-196.7299 1723.7775,-187.3304"/>
<polygon fill="#000000" stroke="#000000" points="1726.5551,-189.4601 1729.9318,-179.4177 1721.0296,-185.1624 1726.5551,-189.4601"/>
</g>
<!-- Pick up! &#160; -->
<g id="node43" class="node">
<title>Pick up! &#160;</title>
<ellipse fill="#c0c0c0" stroke="#000000" cx="1843.4789" cy="-162" rx="35.4579" ry="18"/>
<text text-anchor="middle" x="1843.4789" y="-159.2" font-family="Times,serif" font-size="11.00" fill="#000000">Pick up! &#160;</text>
</g>
<!-- Sequence &#160;&#160;&#160;&#160;&#45;&gt;Pick up! &#160; -->
<g id="edge42" class="edge">
<title>Sequence &#160;&#160;&#160;&#160;&#45;&gt;Pick up! &#160;</title>
<path fill="none" stroke="#000000" d="M1724.8448,-216.7542C1749.9908,-205.1484 1782.954,-189.9346 1807.7506,-178.49"/>
<polygon fill="#000000" stroke="#000000" points="1809.5434,-181.5174 1817.1563,-174.1489 1806.6099,-175.1617 1809.5434,-181.5174"/>
</g>
<!-- To pose place_table! &#160; -->
<g id="node44" class="node">
<title>To pose place_table! &#160;</title>
<ellipse fill="#c0c0c0" stroke="#000000" cx="1966.4789" cy="-162" rx="69.5112" ry="18"/>
<text text-anchor="middle" x="1966.4789" y="-159.2" font-family="Times,serif" font-size="11.00" fill="#000000">To pose place_table! &#160;</text>
</g>
<!-- Sequence &#160;&#160;&#160;&#160;&#45;&gt;To pose place_table! &#160; -->
<g id="edge43" class="edge">
<title>Sequence &#160;&#160;&#160;&#160;&#45;&gt;To pose place_table! &#160;</title>
<path fill="none" stroke="#000000" d="M1724.528,-224.439C1771.1357,-212.4112 1851.7483,-191.6079 1907.0217,-177.3438"/>
<polygon fill="#000000" stroke="#000000" points="1908.2255,-180.6479 1917.0337,-174.7601 1906.4763,-173.87 1908.2255,-180.6479"/>
</g>
<!-- Place! &#160; -->
<g id="node45" class="node">
<title>Place! &#160;</title>
<ellipse fill="#c0c0c0" stroke="#000000" cx="2084.4789" cy="-162" rx="30.8374" ry="18"/>
<text text-anchor="middle" x="2084.4789" y="-159.2" font-family="Times,serif" font-size="11.00" fill="#000000">Place! &#160;</text>
</g>
<!-- Sequence &#160;&#160;&#160;&#160;&#45;&gt;Place! &#160; -->
<g id="edge44" class="edge">
<title>Sequence &#160;&#160;&#160;&#160;&#45;&gt;Place! &#160;</title>
<path fill="none" stroke="#000000" d="M1724.5624,-231.8631C1790.4072,-227.3125 1931.5274,-214.136 2045.4789,-180 2047.6265,-179.3567 2049.8074,-178.6162 2051.9844,-177.8103"/>
<polygon fill="#000000" stroke="#000000" points="2053.4613,-180.9876 2061.3867,-173.9563 2050.8063,-174.5106 2053.4613,-180.9876"/>
</g>
<!-- Have block? &#160; -->
<g id="node38" class="node">
<title>Have block? &#160;</title>
<ellipse fill="#c0c0c0" stroke="#000000" cx="1579.4789" cy="-90" rx="47.5114" ry="18"/>
<text text-anchor="middle" x="1579.4789" y="-87.2" font-family="Times,serif" font-size="11.00" fill="#000000">Have block? &#160;</text>
</g>
<!-- Fallback &#160;&#160;&#160;&#160;&#160;&#45;&gt;Have block? &#160; -->
<g id="edge37" class="edge">
<title>Fallback &#160;&#160;&#160;&#160;&#160;&#45;&gt;Have block? &#160;</title>
<path fill="none" stroke="#000000" d="M1618.3571,-143.8314C1612.1836,-135.2835 1604.7142,-124.9412 1597.9791,-115.6156"/>
<polygon fill="#000000" stroke="#000000" points="1600.7507,-113.4753 1592.0584,-107.4177 1595.076,-117.5738 1600.7507,-113.4753"/>
</g>
<!-- Sequence &#160;&#160;&#160;&#160;&#160; -->
<g id="node39" class="node">
<title>Sequence &#160;&#160;&#160;&#160;&#160;</title>
<polygon fill="#ffa500" stroke="#000000" points="1721.9789,-108 1644.9789,-108 1644.9789,-72 1721.9789,-72 1721.9789,-108"/>
<text text-anchor="middle" x="1683.4789" y="-87.2" font-family="Times,serif" font-size="11.00" fill="#000000">Sequence &#160;&#160;&#160;&#160;&#160;</text>
</g>
<!-- Fallback &#160;&#160;&#160;&#160;&#160;&#45;&gt;Sequence &#160;&#160;&#160;&#160;&#160; -->
<g id="edge38" class="edge">
<title>Fallback &#160;&#160;&#160;&#160;&#160;&#45;&gt;Sequence &#160;&#160;&#160;&#160;&#160;</title>
<path fill="none" stroke="#000000" d="M1644.6007,-143.8314C1650.5288,-135.6232 1657.6519,-125.7606 1664.1723,-116.7323"/>
<polygon fill="#000000" stroke="#000000" points="1667.1629,-118.5693 1670.1805,-108.4133 1661.4881,-114.4708 1667.1629,-118.5693"/>
</g>
<!-- Tucked arm! &#160; -->
<g id="node40" class="node">
<title>Tucked arm! &#160;</title>
<ellipse fill="#c0c0c0" stroke="#000000" cx="1617.4789" cy="-18" rx="48.2143" ry="18"/>
<text text-anchor="middle" x="1617.4789" y="-15.2" font-family="Times,serif" font-size="11.00" fill="#000000">Tucked arm! &#160;</text>
</g>
<!-- Sequence &#160;&#160;&#160;&#160;&#160;&#45;&gt;Tucked arm! &#160; -->
<g id="edge39" class="edge">
<title>Sequence &#160;&#160;&#160;&#160;&#160;&#45;&gt;Tucked arm! &#160;</title>
<path fill="none" stroke="#000000" d="M1666.8243,-71.8314C1658.8289,-63.109 1649.1207,-52.5183 1640.4377,-43.0459"/>
<polygon fill="#000000" stroke="#000000" points="1642.7825,-40.4242 1633.4452,-35.4177 1637.6224,-45.1543 1642.7825,-40.4242"/>
</g>
<!-- To pose pick_table2! -->
<g id="node41" class="node">
<title>To pose pick_table2!</title>
<ellipse fill="#c0c0c0" stroke="#000000" cx="1749.4789" cy="-18" rx="66.2946" ry="18"/>
<text text-anchor="middle" x="1749.4789" y="-15.2" font-family="Times,serif" font-size="11.00" fill="#000000">To pose pick_table2!</text>
</g>
<!-- Sequence &#160;&#160;&#160;&#160;&#160;&#45;&gt;To pose pick_table2! -->
<g id="edge40" class="edge">
<title>Sequence &#160;&#160;&#160;&#160;&#160;&#45;&gt;To pose pick_table2!</title>
<path fill="none" stroke="#000000" d="M1700.1335,-71.8314C1708.0097,-63.2392 1717.5478,-52.834 1726.1307,-43.4708"/>
<polygon fill="#000000" stroke="#000000" points="1728.8811,-45.65 1733.0583,-35.9134 1723.721,-40.9199 1728.8811,-45.65"/>
</g>
</g>
</svg>
