<?xml version="1.0" encoding="UTF-8" standalone="no"?>
<!DOCTYPE svg PUBLIC "-//W3C//DTD SVG 1.1//EN"
 "http://www.w3.org/Graphics/SVG/1.1/DTD/svg11.dtd">
<!-- Generated by graphviz version 2.40.1 (20161225.0304)
 -->
<!-- Title: fallback Pages: 1 -->
<svg width="668pt" height="332pt"
 viewBox="0.00 0.00 667.54 332.00" xmlns="http://www.w3.org/2000/svg" xmlns:xlink="http://www.w3.org/1999/xlink">
<g id="graph0" class="graph" transform="scale(1 1) rotate(0) translate(4 328)">
<title>fallback</title>
<polygon fill="#ffffff" stroke="transparent" points="-4,4 -4,-328 663.5391,-328 663.5391,4 -4,4"/>
<!-- Fallback -->
<g id="node1" class="node">
<title>Fallback</title>
<polygon fill="#00ffff" stroke="#000000" points="303.0772,-298.5442 303.0772,-313.4558 282.2242,-324 252.7336,-324 231.8806,-313.4558 231.8806,-298.5442 252.7336,-288 282.2242,-288 303.0772,-298.5442"/>
<text text-anchor="middle" x="267.4789" y="-303.2" font-family="Times,serif" font-size="11.00" fill="#000000">Fallback</text>
</g>
<!-- Task_done? -->
<g id="node2" class="node">
<title>Task_done?</title>
<ellipse fill="#c0c0c0" stroke="#000000" cx="222.4789" cy="-234" rx="42.1875" ry="18"/>
<text text-anchor="middle" x="222.4789" y="-231.2" font-family="Times,serif" font-size="11.00" fill="#000000">Task_done?</text>
</g>
<!-- Fallback&#45;&gt;Task_done? -->
<g id="edge1" class="edge">
<title>Fallback&#45;&gt;Task_done?</title>
<path fill="none" stroke="#000000" d="M256.1235,-287.8314C250.8356,-279.3707 244.449,-269.1521 238.6673,-259.9014"/>
<polygon fill="#000000" stroke="#000000" points="241.633,-258.0427 233.365,-251.4177 235.697,-261.7527 241.633,-258.0427"/>
</g>
<!-- Sequence -->
<g id="node3" class="node">
<title>Sequence</title>
<polygon fill="#ffa500" stroke="#000000" points="341.9789,-252 282.9789,-252 282.9789,-216 341.9789,-216 341.9789,-252"/>
<text text-anchor="middle" x="312.4789" y="-231.2" font-family="Times,serif" font-size="11.00" fill="#000000">Sequence</text>
</g>
<!-- Fallback&#45;&gt;Sequence -->
<g id="edge2" class="edge">
<title>Fallback&#45;&gt;Sequence</title>
<path fill="none" stroke="#000000" d="M278.8343,-287.8314C283.9115,-279.7079 290.0016,-269.9637 295.5966,-261.0118"/>
<polygon fill="#000000" stroke="#000000" points="298.6386,-262.7483 300.9706,-252.4133 292.7026,-259.0383 298.6386,-262.7483"/>
</g>
<!-- Localise! -->
<g id="node4" class="node">
<title>Localise!</title>
<ellipse fill="#c0c0c0" stroke="#000000" cx="35.4789" cy="-162" rx="35.4579" ry="18"/>
<text text-anchor="middle" x="35.4789" y="-159.2" font-family="Times,serif" font-size="11.00" fill="#000000">Localise!</text>
</g>
<!-- Sequence&#45;&gt;Localise! -->
<g id="edge3" class="edge">
<title>Sequence&#45;&gt;Localise!</title>
<path fill="none" stroke="#000000" d="M282.9722,-219.4585C279.8098,-218.1789 276.6057,-216.9945 273.4789,-216 189.91,-189.4199 163.6135,-204.7316 79.4789,-180 76.8956,-179.2406 74.256,-178.3824 71.6166,-177.463"/>
<polygon fill="#000000" stroke="#000000" points="72.7521,-174.151 62.1595,-173.9321 70.3036,-180.7088 72.7521,-174.151"/>
</g>
<!-- Head up! -->
<g id="node5" class="node">
<title>Head up!</title>
<ellipse fill="#c0c0c0" stroke="#000000" cx="123.4789" cy="-162" rx="34.7556" ry="18"/>
<text text-anchor="middle" x="123.4789" y="-159.2" font-family="Times,serif" font-size="11.00" fill="#000000">Head up!</text>
</g>
<!-- Sequence&#45;&gt;Head up! -->
<g id="edge4" class="edge">
<title>Sequence&#45;&gt;Head up!</title>
<path fill="none" stroke="#000000" d="M282.8085,-219.9158C279.678,-218.547 276.5262,-217.2168 273.4789,-216 227.2724,-197.5497 214.0809,-197.4273 167.4789,-180 165.1115,-179.1147 162.6807,-178.1835 160.2358,-177.2303"/>
<polygon fill="#000000" stroke="#000000" points="161.4244,-173.9364 150.8388,-173.4937 158.8379,-180.441 161.4244,-173.9364"/>
</g>
<!-- Fallback  -->
<g id="node6" class="node">
<title>Fallback </title>
<polygon fill="#00ffff" stroke="#000000" points="251.983,-154.5442 251.983,-169.4558 230.0136,-180 198.9442,-180 176.9748,-169.4558 176.9748,-154.5442 198.9442,-144 230.0136,-144 251.983,-154.5442"/>
<text text-anchor="middle" x="214.4789" y="-159.2" font-family="Times,serif" font-size="11.00" fill="#000000">Fallback </text>
</g>
<!-- Sequence&#45;&gt;Fallback  -->
<g id="edge5" class="edge">
<title>Sequence&#45;&gt;Fallback </title>
<path fill="none" stroke="#000000" d="M287.7494,-215.8314C274.4137,-206.0337 257.8692,-193.8786 243.8778,-183.5991"/>
<polygon fill="#000000" stroke="#000000" points="245.6786,-180.5792 235.5475,-177.479 241.5341,-186.2204 245.6786,-180.5792"/>
</g>
<!-- Head down! -->
<g id="node11" class="node">
<title>Head down!</title>
<ellipse fill="#c0c0c0" stroke="#000000" cx="312.4789" cy="-162" rx="42.8909" ry="18"/>
<text text-anchor="middle" x="312.4789" y="-159.2" font-family="Times,serif" font-size="11.00" fill="#000000">Head down!</text>
</g>
<!-- Sequence&#45;&gt;Head down! -->
<g id="edge10" class="edge">
<title>Sequence&#45;&gt;Head down!</title>
<path fill="none" stroke="#000000" d="M312.4789,-215.8314C312.4789,-208.131 312.4789,-198.9743 312.4789,-190.4166"/>
<polygon fill="#000000" stroke="#000000" points="315.979,-190.4132 312.4789,-180.4133 308.979,-190.4133 315.979,-190.4132"/>
</g>
<!-- Pick up! -->
<g id="node12" class="node">
<title>Pick up!</title>
<ellipse fill="#c0c0c0" stroke="#000000" cx="405.4789" cy="-162" rx="31.7423" ry="18"/>
<text text-anchor="middle" x="405.4789" y="-159.2" font-family="Times,serif" font-size="11.00" fill="#000000">Pick up!</text>
</g>
<!-- Sequence&#45;&gt;Pick up! -->
<g id="edge11" class="edge">
<title>Sequence&#45;&gt;Pick up!</title>
<path fill="none" stroke="#000000" d="M335.9468,-215.8314C348.8695,-205.8267 364.9672,-193.3639 378.4183,-182.9502"/>
<polygon fill="#000000" stroke="#000000" points="380.6348,-185.6605 386.3994,-176.7712 376.3496,-180.1255 380.6348,-185.6605"/>
</g>
<!-- To pose place_table! -->
<g id="node13" class="node">
<title>To pose place_table!</title>
<ellipse fill="#c0c0c0" stroke="#000000" cx="521.4789" cy="-162" rx="66.2946" ry="18"/>
<text text-anchor="middle" x="521.4789" y="-159.2" font-family="Times,serif" font-size="11.00" fill="#000000">To pose place_table!</text>
</g>
<!-- Sequence&#45;&gt;To pose place_table! -->
<g id="edge12" class="edge">
<title>Sequence&#45;&gt;To pose place_table!</title>
<path fill="none" stroke="#000000" d="M341.9802,-223.8369C375.3484,-212.3416 430.2793,-193.4181 470.6009,-179.5274"/>
<polygon fill="#000000" stroke="#000000" points="471.9418,-182.7674 480.2565,-176.201 469.6618,-176.1491 471.9418,-182.7674"/>
</g>
<!-- Place! -->
<g id="node14" class="node">
<title>Place!</title>
<ellipse fill="#c0c0c0" stroke="#000000" cx="632.4789" cy="-162" rx="27.1205" ry="18"/>
<text text-anchor="middle" x="632.4789" y="-159.2" font-family="Times,serif" font-size="11.00" fill="#000000">Place!</text>
</g>
<!-- Sequence&#45;&gt;Place! -->
<g id="edge13" class="edge">
<title>Sequence&#45;&gt;Place!</title>
<path fill="none" stroke="#000000" d="M342.1887,-231.0779C394.6419,-225.3238 506.611,-210.3582 596.4789,-180 598.3657,-179.3626 600.2785,-178.6441 602.1883,-177.8704"/>
<polygon fill="#000000" stroke="#000000" points="603.8826,-180.9464 611.5759,-173.6619 601.0191,-174.5589 603.8826,-180.9464"/>
</g>
<!-- Have block? -->
<g id="node7" class="node">
<title>Have block?</title>
<ellipse fill="#c0c0c0" stroke="#000000" cx="167.4789" cy="-90" rx="43.7956" ry="18"/>
<text text-anchor="middle" x="167.4789" y="-87.2" font-family="Times,serif" font-size="11.00" fill="#000000">Have block?</text>
</g>
<!-- Fallback &#45;&gt;Have block? -->
<g id="edge6" class="edge">
<title>Fallback &#45;&gt;Have block?</title>
<path fill="none" stroke="#000000" d="M202.6188,-143.8314C197.0959,-135.3707 190.4254,-125.1521 184.3868,-115.9014"/>
<polygon fill="#000000" stroke="#000000" points="187.2459,-113.8783 178.8488,-107.4177 181.3843,-117.7047 187.2459,-113.8783"/>
</g>
<!-- Sequence  -->
<g id="node8" class="node">
<title>Sequence </title>
<polygon fill="#ffa500" stroke="#000000" points="291.4789,-108 229.4789,-108 229.4789,-72 291.4789,-72 291.4789,-108"/>
<text text-anchor="middle" x="260.4789" y="-87.2" font-family="Times,serif" font-size="11.00" fill="#000000">Sequence </text>
</g>
<!-- Fallback &#45;&gt;Sequence  -->
<g id="edge7" class="edge">
<title>Fallback &#45;&gt;Sequence </title>
<path fill="none" stroke="#000000" d="M226.0867,-143.8314C231.2767,-135.7079 237.5021,-125.9637 243.2214,-117.0118"/>
<polygon fill="#000000" stroke="#000000" points="246.2804,-118.7246 248.7149,-108.4133 240.3815,-114.9559 246.2804,-118.7246"/>
</g>
<!-- Tucked arm! -->
<g id="node9" class="node">
<title>Tucked arm!</title>
<ellipse fill="#c0c0c0" stroke="#000000" cx="195.4789" cy="-18" rx="44.498" ry="18"/>
<text text-anchor="middle" x="195.4789" y="-15.2" font-family="Times,serif" font-size="11.00" fill="#000000">Tucked arm!</text>
</g>
<!-- Sequence &#45;&gt;Tucked arm! -->
<g id="edge8" class="edge">
<title>Sequence &#45;&gt;Tucked arm!</title>
<path fill="none" stroke="#000000" d="M244.0767,-71.8314C236.0848,-62.9788 226.3555,-52.2017 217.7076,-42.6225"/>
<polygon fill="#000000" stroke="#000000" points="220.0586,-40.0036 210.7596,-34.9263 214.8627,-44.6944 220.0586,-40.0036"/>
</g>
<!-- To pose pick_table0! -->
<g id="node10" class="node">
<title>To pose pick_table0!</title>
<ellipse fill="#c0c0c0" stroke="#000000" cx="324.4789" cy="-18" rx="66.2946" ry="18"/>
<text text-anchor="middle" x="324.4789" y="-15.2" font-family="Times,serif" font-size="11.00" fill="#000000">To pose pick_table0!</text>
</g>
<!-- Sequence &#45;&gt;To pose pick_table0! -->
<g id="edge9" class="edge">
<title>Sequence &#45;&gt;To pose pick_table0!</title>
<path fill="none" stroke="#000000" d="M276.6288,-71.8314C284.2663,-63.2392 293.5154,-52.834 301.8382,-43.4708"/>
<polygon fill="#000000" stroke="#000000" points="304.5282,-45.7128 308.5559,-35.9134 299.2963,-41.0622 304.5282,-45.7128"/>
</g>
</g>
</svg>
